<svg width="112" height="112" viewBox="0 0 112 112" fill="none" xmlns="http://www.w3.org/2000/svg">
<circle cx="63.5" cy="30.5" r="6" stroke="black" stroke-width="3"/>
<circle cx="86.5" cy="43.5" r="6" stroke="black" stroke-width="3"/>
<circle cx="64" cy="56" r="8.5" stroke="black" stroke-width="3"/>
<circle cx="86.5" cy="68.5" r="6" stroke="black" stroke-width="3"/>
<circle cx="63.5" cy="81.5" r="6" stroke="black" stroke-width="3"/>
<line x1="63.5" y1="37" x2="63.5" y2="48" stroke="black" stroke-width="3"/>
<line x1="80.4022" y1="45.4381" x2="70.876" y2="50.9381" stroke="black" stroke-width="3"/>
<line x1="80.7763" y1="64.799" x2="71.25" y2="59.299" stroke="black" stroke-width="3"/>
<line x1="63.5" y1="64" x2="63.5" y2="75" stroke="black" stroke-width="3"/>
<path d="M39.8577 44.5C41.2101 46.4972 42 48.9063 42 51.5C42 58.4036 36.4036 64 29.5 64C22.5964 64 17 58.4036 17 51.5C17 48.9063 17.7899 46.4972 19.1423 44.5" stroke="black" stroke-width="2"/>
<rect x="18" y="39" width="4" height="6" rx="2" stroke="black" stroke-width="2"/>
<rect x="37" y="39" width="4" height="6" rx="2" stroke="black" stroke-width="2"/>
<path d="M29 64.4999C29 64.4999 29 72.1191 37 72.5C45 72.5 45 67.5 45 64.4999C45 61.4999 45 56.5 53 56.5C53.9393 56.5 54.7683 56.6103 55.5 56.805" stroke="black" stroke-width="2"/>
<circle cx="56" cy="56" r="52.5" stroke="black" stroke-width="5"/>
</svg>
