<svg width="112" height="112" viewBox="0 0 112 112" fill="none" xmlns="http://www.w3.org/2000/svg">
<line x1="63.5" y1="40" x2="63.5" y2="72" stroke="black" stroke-width="4"/>
<line x1="80.4022" y1="45.4381" x2="63.5" y2="56" stroke="black" stroke-width="3"/>
<line x1="80.7763" y1="64.799" x2="63.5" y2="56" stroke="black" stroke-width="3"/>
<path d="M39.8577 44.5C41.2101 46.4972 42 48.9063 42 51.5C42 58.4036 36.4036 64 29.5 64C22.5964 64 17 58.4036 17 51.5C17 48.9063 17.7899 46.4972 19.1423 44.5" stroke="black" stroke-width="3"/>
<rect x="16" y="37" width="6" height="8" rx="2" stroke="black" stroke-width="3"/>
<rect x="36" y="37" width="6" height="8" rx="2" stroke="black" stroke-width="3"/>
<path d="M29 64.4999C29 64.4999 29 72.1191 37 72.5C45 72.5 45 67.5 45 64.4999C45 61.4999 45 56.5 53 56.5C53.9393 56.5 54.7683 56.6103 63.5 56.805" stroke="black" stroke-width="3"/>
<circle cx="53" cy="53" r="50" stroke="black" stroke-width="5"/>
</svg>
